<?xml version="1.0" encoding="utf-8" standalone="no"?>
<!DOCTYPE svg PUBLIC "-//W3C//DTD SVG 1.1//EN"
  "http://www.w3.org/Graphics/SVG/1.1/DTD/svg11.dtd">
<!-- Created with matplotlib (https://matplotlib.org/) -->
<svg height="309.812pt" version="1.1" viewBox="0 0 402.791875 309.812" width="402.791875pt" xmlns="http://www.w3.org/2000/svg" xmlns:xlink="http://www.w3.org/1999/xlink">
 <defs>
  <style type="text/css">
*{stroke-linecap:butt;stroke-linejoin:round;}
  </style>
 </defs>
 <g id="figure_1">
  <g id="patch_1">
   <path d="M 0 309.812 
L 402.791875 309.812 
L 402.791875 0 
L 0 0 
z
" style="fill:#ffffff;"/>
  </g>
  <g id="axes_1">
   <g id="patch_2">
    <path d="M 38.471875 273.312 
L 395.591875 273.312 
L 395.591875 7.2 
L 38.471875 7.2 
z
" style="fill:#ffffff;"/>
   </g>
   <g id="matplotlib.axis_1">
    <g id="xtick_1">
     <g id="line2d_1">
      <defs>
       <path d="M 0 0 
L 0 3.5 
" id="mcce1a219e2" style="stroke:#000000;stroke-width:0.8;"/>
      </defs>
      <g>
       <use style="stroke:#000000;stroke-width:0.8;" x="54.704602" xlink:href="#mcce1a219e2" y="273.312"/>
      </g>
     </g>
     <g id="text_1">
      <!-- 0 -->
      <defs>
       <path d="M 27.78125 71.921875 
Q 51.125 71.921875 51.125 35.296875 
Q 51.125 16.796875 45.09375 7.78125 
Q 39.0625 -1.21875 27.78125 -1.21875 
Q 4.5 -1.21875 4.5 35.296875 
Q 4.5 53.8125 10.515625 62.859375 
Q 16.546875 71.921875 27.78125 71.921875 
z
M 27.78125 6 
Q 34.859375 6 38.46875 12.859375 
Q 42.09375 19.734375 42.09375 35.296875 
Q 42.09375 46.140625 40.5 52.359375 
Q 38.921875 58.59375 35.71875 61.640625 
Q 32.515625 64.703125 27.6875 64.703125 
Q 20.609375 64.703125 17.046875 57.71875 
Q 13.484375 50.734375 13.484375 35.296875 
Q 13.484375 24.609375 15.09375 18.359375 
Q 16.703125 12.109375 19.875 9.046875 
Q 23.046875 6 27.78125 6 
z
" id="ArialUnicodeMS-48"/>
      </defs>
      <g transform="translate(51.924134 287.469812)scale(0.1 -0.1)">
       <use xlink:href="#ArialUnicodeMS-48"/>
      </g>
     </g>
    </g>
    <g id="xtick_2">
     <g id="line2d_2">
      <g>
       <use style="stroke:#000000;stroke-width:0.8;" x="120.960632" xlink:href="#mcce1a219e2" y="273.312"/>
      </g>
     </g>
     <g id="text_2">
      <!-- 10 -->
      <defs>
       <path d="M 37.5 0 
L 28.71875 0 
L 28.71875 56 
Q 22.125 49.75 11.078125 45.40625 
L 11.078125 53.90625 
Q 26.265625 61.1875 31.78125 71.921875 
L 37.5 71.921875 
z
" id="ArialUnicodeMS-49"/>
      </defs>
      <g transform="translate(115.399694 287.469812)scale(0.1 -0.1)">
       <use xlink:href="#ArialUnicodeMS-49"/>
       <use x="55.615234" xlink:href="#ArialUnicodeMS-48"/>
      </g>
     </g>
    </g>
    <g id="xtick_3">
     <g id="line2d_3">
      <g>
       <use style="stroke:#000000;stroke-width:0.8;" x="187.216662" xlink:href="#mcce1a219e2" y="273.312"/>
      </g>
     </g>
     <g id="text_3">
      <!-- 20 -->
      <defs>
       <path d="M 50.484375 0 
L 3.078125 0 
Q 3.078125 6.0625 7.296875 12.25 
Q 11.53125 18.453125 23.09375 27.78125 
Q 30.171875 33.453125 35.734375 39.671875 
Q 41.3125 45.90625 41.3125 52.203125 
Q 41.3125 57.625 37.46875 61.15625 
Q 33.640625 64.703125 27.78125 64.703125 
Q 21.875 64.703125 17.875 61.0625 
Q 13.875 57.421875 13.8125 50.203125 
L 4.78125 51.21875 
Q 5.609375 61.28125 11.9375 66.59375 
Q 18.265625 71.921875 27.984375 71.921875 
Q 38.53125 71.921875 44.40625 66.078125 
Q 50.296875 60.25 50.296875 52 
Q 50.296875 45.125 45.328125 38.0625 
Q 40.375 31 25.59375 19.1875 
Q 17.828125 12.984375 15.28125 8.5 
L 50.484375 8.5 
z
" id="ArialUnicodeMS-50"/>
      </defs>
      <g transform="translate(181.655724 287.469812)scale(0.1 -0.1)">
       <use xlink:href="#ArialUnicodeMS-50"/>
       <use x="55.615234" xlink:href="#ArialUnicodeMS-48"/>
      </g>
     </g>
    </g>
    <g id="xtick_4">
     <g id="line2d_4">
      <g>
       <use style="stroke:#000000;stroke-width:0.8;" x="253.472691" xlink:href="#mcce1a219e2" y="273.312"/>
      </g>
     </g>
     <g id="text_4">
      <!-- 30 -->
      <defs>
       <path d="M 37.890625 38.71875 
Q 44.53125 37.453125 47.921875 32.296875 
Q 51.3125 27.15625 51.3125 21.09375 
Q 51.3125 11.328125 44.203125 5.046875 
Q 37.109375 -1.21875 27.203125 -1.21875 
Q 17.71875 -1.21875 11.5625 4.296875 
Q 5.421875 9.8125 4.390625 18.890625 
L 13.1875 20.125 
Q 14.5 13.03125 17.984375 9.515625 
Q 21.484375 6 27.203125 6 
Q 33.34375 6 37.609375 10.328125 
Q 41.890625 14.65625 41.890625 20.90625 
Q 41.890625 26.90625 38 30.859375 
Q 34.125 34.8125 27.875 34.8125 
Q 25.34375 34.8125 21.6875 33.890625 
L 22.703125 41.609375 
Q 26.21875 41.609375 28.265625 41.9375 
Q 30.328125 42.28125 32.859375 43.59375 
Q 35.40625 44.921875 37.0625 47.390625 
Q 38.71875 49.859375 38.71875 53.515625 
Q 38.71875 58.84375 35.171875 61.765625 
Q 31.640625 64.703125 27 64.703125 
Q 21.6875 64.703125 18.328125 61.328125 
Q 14.984375 57.953125 14.109375 51.703125 
L 5.328125 53.328125 
Q 7.03125 62.640625 12.859375 67.28125 
Q 18.703125 71.921875 26.8125 71.921875 
Q 35.75 71.921875 41.71875 66.53125 
Q 47.703125 61.140625 47.703125 53.328125 
Q 47.703125 43.3125 37.890625 38.921875 
z
" id="ArialUnicodeMS-51"/>
      </defs>
      <g transform="translate(247.911754 287.469812)scale(0.1 -0.1)">
       <use xlink:href="#ArialUnicodeMS-51"/>
       <use x="55.615234" xlink:href="#ArialUnicodeMS-48"/>
      </g>
     </g>
    </g>
    <g id="xtick_5">
     <g id="line2d_5">
      <g>
       <use style="stroke:#000000;stroke-width:0.8;" x="319.728721" xlink:href="#mcce1a219e2" y="273.312"/>
      </g>
     </g>
     <g id="text_5">
      <!-- 40 -->
      <defs>
       <path d="M 50.984375 17.09375 
L 41.3125 17.09375 
L 41.3125 0 
L 32.515625 0 
L 32.515625 17.09375 
L 1.515625 17.09375 
L 1.515625 25.203125 
L 34.078125 71.578125 
L 41.3125 71.578125 
L 41.3125 25.203125 
L 50.984375 25.203125 
z
M 32.515625 25.203125 
L 32.515625 57.515625 
L 32.328125 57.515625 
L 10.109375 25.203125 
z
" id="ArialUnicodeMS-52"/>
      </defs>
      <g transform="translate(314.167784 287.469812)scale(0.1 -0.1)">
       <use xlink:href="#ArialUnicodeMS-52"/>
       <use x="55.615234" xlink:href="#ArialUnicodeMS-48"/>
      </g>
     </g>
    </g>
    <g id="xtick_6">
     <g id="line2d_6">
      <g>
       <use style="stroke:#000000;stroke-width:0.8;" x="385.984751" xlink:href="#mcce1a219e2" y="273.312"/>
      </g>
     </g>
     <g id="text_6">
      <!-- 50 -->
      <defs>
       <path d="M 15.828125 43.015625 
Q 22.359375 47.515625 29.390625 47.515625 
Q 38.328125 47.515625 44.96875 41.1875 
Q 51.609375 34.859375 51.609375 24.3125 
Q 51.609375 13.671875 44.875 6.21875 
Q 38.140625 -1.21875 27.203125 -1.21875 
Q 18.265625 -1.21875 11.71875 3.828125 
Q 5.171875 8.890625 4.203125 18.796875 
L 13.375 19.484375 
Q 14.5 12.703125 18.15625 9.34375 
Q 21.828125 6 27.203125 6 
Q 33.890625 6 38.03125 11.046875 
Q 42.1875 16.109375 42.1875 23.484375 
Q 42.1875 31 37.9375 35.34375 
Q 33.6875 39.703125 27 39.703125 
Q 18.5625 39.703125 14.015625 32.8125 
L 5.71875 33.796875 
L 12.703125 70.609375 
L 48.1875 70.609375 
L 48.1875 62.109375 
L 19.671875 62.109375 
z
" id="ArialUnicodeMS-53"/>
      </defs>
      <g transform="translate(380.423813 287.469812)scale(0.1 -0.1)">
       <use xlink:href="#ArialUnicodeMS-53"/>
       <use x="55.615234" xlink:href="#ArialUnicodeMS-48"/>
      </g>
     </g>
    </g>
    <g id="text_7">
     <!-- Number of Generation -->
     <defs>
      <path d="M 64.203125 0 
L 54.5 0 
L 17.09375 56.203125 
L 16.890625 56.203125 
L 16.890625 0 
L 7.90625 0 
L 7.90625 71.578125 
L 17.578125 71.578125 
L 54.984375 15.375 
L 55.171875 15.375 
L 55.171875 71.578125 
L 64.203125 71.578125 
z
" id="ArialUnicodeMS-78"/>
      <path d="M 48.6875 0 
L 40.828125 0 
L 40.828125 7.625 
L 40.578125 7.625 
Q 34.625 -1.21875 24.3125 -1.21875 
Q 18.890625 -1.21875 14.28125 1.296875 
Q 9.671875 3.8125 8.125 8.21875 
Q 6.59375 12.640625 6.59375 19.671875 
L 6.59375 51.8125 
L 15.375 51.8125 
L 15.375 23.09375 
Q 15.375 16.21875 16.03125 13.234375 
Q 16.703125 10.25 19.484375 8.3125 
Q 22.265625 6.390625 26.125 6.390625 
Q 31.109375 6.390625 35.5 9.828125 
Q 39.890625 13.28125 39.890625 24.125 
L 39.890625 51.8125 
L 48.6875 51.8125 
z
" id="ArialUnicodeMS-117"/>
      <path d="M 76.90625 0 
L 68.109375 0 
L 68.109375 32.71875 
Q 68.109375 36.328125 67.625 38.890625 
Q 67.140625 41.453125 65.109375 43.421875 
Q 63.09375 45.40625 58.796875 45.40625 
Q 53.609375 45.40625 49.84375 41.796875 
Q 46.09375 38.1875 46.09375 30.078125 
L 46.09375 0 
L 37.3125 0 
L 37.3125 33.6875 
Q 37.3125 40.4375 34.9375 42.921875 
Q 32.5625 45.40625 28.21875 45.40625 
Q 22.5625 45.40625 18.921875 41.5 
Q 15.28125 37.59375 15.28125 26.90625 
L 15.28125 0 
L 6.5 0 
L 6.5 51.8125 
L 14.40625 51.8125 
L 14.40625 44.578125 
L 14.59375 44.578125 
Q 19.875 52.984375 30.078125 52.984375 
Q 35.796875 52.984375 39.484375 50.703125 
Q 43.171875 48.4375 44.828125 43.890625 
Q 50.59375 52.984375 60.796875 52.984375 
Q 68.84375 52.984375 72.875 48.625 
Q 76.90625 44.28125 76.90625 35.59375 
z
" id="ArialUnicodeMS-109"/>
      <path d="M 15.71875 46 
Q 20.609375 52.984375 29.6875 52.984375 
Q 39.703125 52.984375 45.703125 45.703125 
Q 51.703125 38.421875 51.703125 26.703125 
Q 51.703125 13.1875 44.984375 5.984375 
Q 38.28125 -1.21875 29.296875 -1.21875 
Q 20.171875 -1.21875 15.09375 6.5 
L 14.890625 6.5 
L 14.890625 0 
L 6.6875 0 
L 6.6875 71.578125 
L 15.484375 71.578125 
L 15.484375 46 
z
M 28.609375 6 
Q 34.71875 6 38.6875 11.25 
Q 42.671875 16.5 42.671875 25.984375 
Q 42.671875 35.109375 39.015625 40.453125 
Q 35.359375 45.796875 28.90625 45.796875 
Q 22.5625 45.796875 18.671875 40.28125 
Q 14.796875 34.765625 14.796875 26.3125 
Q 14.796875 18.0625 16.40625 14.5625 
Q 18.015625 11.078125 21.265625 8.53125 
Q 24.515625 6 28.609375 6 
z
" id="ArialUnicodeMS-98"/>
      <path d="M 51.703125 23.6875 
L 12.890625 23.6875 
Q 13.421875 15.09375 17.796875 10.546875 
Q 22.171875 6 28.71875 6 
Q 33.734375 6 37.15625 8.65625 
Q 40.578125 11.328125 42.390625 16.703125 
L 51.421875 15.578125 
Q 49.21875 7.46875 43.359375 3.125 
Q 37.5 -1.21875 28.71875 -1.21875 
Q 17.046875 -1.21875 10.46875 5.9375 
Q 3.90625 13.09375 3.90625 25.484375 
Q 3.90625 37.75 10.28125 45.359375 
Q 16.65625 52.984375 28.21875 52.984375 
Q 33.890625 52.984375 39.140625 50.484375 
Q 44.390625 48 48.046875 42.015625 
Q 51.703125 36.03125 51.703125 23.6875 
z
M 42.671875 30.90625 
Q 42.140625 38.8125 37.765625 42.296875 
Q 33.40625 45.796875 28.21875 45.796875 
Q 22.015625 45.796875 18.015625 41.640625 
Q 14.015625 37.5 13.375 30.90625 
z
" id="ArialUnicodeMS-101"/>
      <path d="M 34.625 50.203125 
L 31.59375 42.09375 
Q 28.328125 44 25.203125 44 
Q 20.265625 44 17.71875 39.578125 
Q 15.1875 35.15625 15.1875 27.203125 
L 15.1875 0 
L 6.390625 0 
L 6.390625 51.8125 
L 14.40625 51.8125 
L 14.40625 44 
L 14.59375 44 
Q 18.796875 52.984375 25.59375 52.984375 
Q 30.078125 52.984375 34.625 50.203125 
z
" id="ArialUnicodeMS-114"/>
      <path id="ArialUnicodeMS-32"/>
      <path d="M 27.78125 52.984375 
Q 38.28125 52.984375 45.1875 46.140625 
Q 52.09375 39.3125 52.09375 26.703125 
Q 52.09375 11.421875 44.625 5.09375 
Q 37.15625 -1.21875 27.78125 -1.21875 
Q 17.96875 -1.21875 10.734375 5.265625 
Q 3.515625 11.765625 3.515625 25.875 
Q 3.515625 39.546875 10.5 46.265625 
Q 17.484375 52.984375 27.78125 52.984375 
z
M 27.78125 6 
Q 35.296875 6 39.203125 11.5625 
Q 43.109375 17.140625 43.109375 26.21875 
Q 43.109375 35.9375 38.6875 40.859375 
Q 34.28125 45.796875 27.78125 45.796875 
Q 21.09375 45.796875 16.796875 40.796875 
Q 12.5 35.796875 12.5 25.875 
Q 12.5 16.015625 16.859375 11 
Q 21.234375 6 27.78125 6 
z
" id="ArialUnicodeMS-111"/>
      <path d="M 31.109375 71.921875 
L 29.78125 64.203125 
Q 27.15625 64.703125 24.609375 64.703125 
Q 21.4375 64.703125 19.40625 63.359375 
Q 17.390625 62.015625 17.390625 56.6875 
L 17.390625 51.8125 
L 27.390625 51.8125 
L 27.390625 45.015625 
L 17.390625 45.015625 
L 17.390625 0 
L 8.59375 0 
L 8.59375 45.015625 
L 0.78125 45.015625 
L 0.78125 51.8125 
L 8.59375 51.8125 
L 8.59375 57.421875 
Q 8.59375 61.328125 9.328125 64.5 
Q 10.0625 67.671875 13.203125 70.234375 
Q 16.359375 72.796875 22.90625 72.796875 
Q 26.8125 72.796875 31.109375 71.921875 
z
" id="ArialUnicodeMS-102"/>
      <path d="M 71.390625 10.015625 
Q 57.859375 -1.21875 41.796875 -1.21875 
Q 25.34375 -1.21875 15.25 8.8125 
Q 5.171875 18.84375 5.171875 35.5 
Q 5.171875 45.65625 9.296875 54.421875 
Q 13.421875 63.1875 21.453125 67.984375 
Q 29.5 72.796875 41.109375 72.796875 
Q 53.171875 72.796875 60.46875 67.5 
Q 67.78125 62.203125 70.3125 51.609375 
L 61.8125 49.21875 
Q 59.8125 56.9375 54.640625 60.8125 
Q 49.46875 64.703125 41.109375 64.703125 
Q 28.171875 64.703125 21.578125 56.78125 
Q 14.984375 48.875 14.984375 36.078125 
Q 14.984375 26.515625 18.1875 20.15625 
Q 21.390625 13.8125 27.65625 10.5625 
Q 33.9375 7.328125 41.3125 7.328125 
Q 52.546875 7.328125 62.203125 14.703125 
L 62.203125 27.984375 
L 41.109375 27.984375 
L 41.109375 36.53125 
L 71.390625 36.53125 
z
" id="ArialUnicodeMS-71"/>
      <path d="M 49.03125 0 
L 40.1875 0 
L 40.1875 31.5 
Q 40.1875 39.453125 37.328125 42.421875 
Q 34.46875 45.40625 29.390625 45.40625 
Q 25.484375 45.40625 21.984375 43.5 
Q 18.5 41.609375 17.03125 38.140625 
Q 15.578125 34.671875 15.578125 28.328125 
L 15.578125 0 
L 6.78125 0 
L 6.78125 51.8125 
L 14.703125 51.8125 
L 14.703125 44.484375 
L 14.890625 44.484375 
Q 17.671875 48.734375 21.75 50.859375 
Q 25.828125 52.984375 31.203125 52.984375 
Q 35.296875 52.984375 39.296875 51.515625 
Q 43.3125 50.046875 45.578125 47.109375 
Q 47.859375 44.1875 48.4375 40.859375 
Q 49.03125 37.546875 49.03125 31.890625 
z
" id="ArialUnicodeMS-110"/>
      <path d="M 51.609375 0 
L 42.390625 0 
Q 41.109375 2.4375 40.578125 6.390625 
Q 31.734375 -1.21875 21.484375 -1.21875 
Q 13.28125 -1.21875 8.546875 2.875 
Q 3.8125 6.984375 3.8125 13.71875 
Q 3.8125 20.171875 8.375 24.34375 
Q 12.9375 28.515625 24.21875 29.890625 
L 32.421875 31.109375 
Q 37.015625 31.84375 39.984375 32.90625 
Q 39.984375 36.859375 39.734375 38.5 
Q 39.5 40.140625 38.296875 41.890625 
Q 37.109375 43.65625 34.46875 44.71875 
Q 31.84375 45.796875 27.390625 45.796875 
Q 21.734375 45.796875 18.4375 43.703125 
Q 15.140625 41.609375 13.921875 35.890625 
L 5.328125 37.015625 
Q 6.734375 44.96875 12.59375 48.96875 
Q 18.453125 52.984375 28.71875 52.984375 
Q 38.03125 52.984375 42.40625 50.21875 
Q 46.78125 47.46875 47.78125 43.5625 
Q 48.78125 39.65625 48.78125 33.5 
L 48.78125 21.6875 
Q 48.78125 10.890625 49.1875 7.203125 
Q 49.609375 3.515625 51.609375 0 
z
M 39.984375 22.796875 
L 39.984375 25.984375 
Q 33.109375 23.6875 23.140625 22.34375 
Q 13.1875 21 13.1875 13.921875 
Q 13.1875 10.359375 15.875 8.03125 
Q 18.5625 5.71875 23.578125 5.71875 
Q 30.078125 5.71875 35.03125 9.59375 
Q 39.984375 13.484375 39.984375 22.796875 
z
" id="ArialUnicodeMS-97"/>
      <path d="M 26.90625 0.09375 
Q 23 -0.6875 20.3125 -0.6875 
Q 14.546875 -0.6875 11.90625 1.34375 
Q 9.28125 3.375 8.6875 6.5 
Q 8.109375 9.625 8.109375 15.1875 
L 8.109375 45.015625 
L 1.703125 45.015625 
L 1.703125 51.8125 
L 8.109375 51.8125 
L 8.109375 64.703125 
L 16.890625 70.015625 
L 16.890625 51.8125 
L 25.6875 51.8125 
L 25.6875 45.015625 
L 16.890625 45.015625 
L 16.890625 14.703125 
Q 16.890625 10.796875 17.6875 9.15625 
Q 18.5 7.515625 21.78125 7.515625 
Q 23.6875 7.515625 25.6875 7.90625 
z
" id="ArialUnicodeMS-116"/>
      <path d="M 15.484375 0 
L 6.6875 0 
L 6.6875 51.8125 
L 15.484375 51.8125 
z
M 15.484375 61.625 
L 6.6875 61.625 
L 6.6875 71.578125 
L 15.484375 71.578125 
z
" id="ArialUnicodeMS-105"/>
     </defs>
     <g transform="translate(167.565469 300.619812)scale(0.1 -0.1)">
      <use xlink:href="#ArialUnicodeMS-78"/>
      <use x="72.216797" xlink:href="#ArialUnicodeMS-117"/>
      <use x="127.832031" xlink:href="#ArialUnicodeMS-109"/>
      <use x="211.132812" xlink:href="#ArialUnicodeMS-98"/>
      <use x="266.748047" xlink:href="#ArialUnicodeMS-101"/>
      <use x="322.363281" xlink:href="#ArialUnicodeMS-114"/>
      <use x="355.664062" xlink:href="#ArialUnicodeMS-32"/>
      <use x="383.447266" xlink:href="#ArialUnicodeMS-111"/>
      <use x="439.0625" xlink:href="#ArialUnicodeMS-102"/>
      <use x="466.845703" xlink:href="#ArialUnicodeMS-32"/>
      <use x="494.628906" xlink:href="#ArialUnicodeMS-71"/>
      <use x="572.412109" xlink:href="#ArialUnicodeMS-101"/>
      <use x="628.027344" xlink:href="#ArialUnicodeMS-110"/>
      <use x="683.642578" xlink:href="#ArialUnicodeMS-101"/>
      <use x="739.257812" xlink:href="#ArialUnicodeMS-114"/>
      <use x="772.558594" xlink:href="#ArialUnicodeMS-97"/>
      <use x="828.173828" xlink:href="#ArialUnicodeMS-116"/>
      <use x="855.957031" xlink:href="#ArialUnicodeMS-105"/>
      <use x="878.173828" xlink:href="#ArialUnicodeMS-111"/>
      <use x="933.789062" xlink:href="#ArialUnicodeMS-110"/>
     </g>
    </g>
   </g>
   <g id="matplotlib.axis_2">
    <g id="ytick_1">
     <g id="line2d_7">
      <defs>
       <path d="M 0 0 
L -3.5 0 
" id="m0df4ac4afe" style="stroke:#000000;stroke-width:0.8;"/>
      </defs>
      <g>
       <use style="stroke:#000000;stroke-width:0.8;" x="38.471875" xlink:href="#m0df4ac4afe" y="271.713917"/>
      </g>
     </g>
     <g id="text_8">
      <!-- 9 -->
      <defs>
       <path d="M 42.390625 33.6875 
Q 39.796875 29.5 35.28125 26.90625 
Q 30.765625 24.3125 25.484375 24.3125 
Q 16.65625 24.3125 10.46875 30.78125 
Q 4.296875 37.25 4.296875 47.703125 
Q 4.296875 58.34375 10.59375 65.125 
Q 16.890625 71.921875 26.8125 71.921875 
Q 36.765625 71.921875 44.03125 64.15625 
Q 51.3125 56.390625 51.3125 37.3125 
Q 51.3125 17.921875 44.671875 8.34375 
Q 38.03125 -1.21875 25.6875 -1.21875 
Q 17.625 -1.21875 12.203125 3.203125 
Q 6.78125 7.625 5.609375 16.609375 
L 14.015625 17.28125 
Q 16.015625 6 25.875 6 
Q 33.984375 6 38.28125 13.390625 
Q 42.578125 20.796875 42.578125 33.6875 
z
M 27.59375 31.984375 
Q 34.03125 31.984375 37.8125 36.546875 
Q 41.609375 41.109375 41.609375 48.09375 
Q 41.609375 55.171875 37.71875 59.9375 
Q 33.84375 64.703125 27.78125 64.703125 
Q 21.6875 64.703125 17.484375 59.640625 
Q 13.28125 54.59375 13.28125 47.40625 
Q 13.28125 40.625 17.40625 36.296875 
Q 21.53125 31.984375 27.59375 31.984375 
z
" id="ArialUnicodeMS-57"/>
      </defs>
      <g transform="translate(25.910938 275.292823)scale(0.1 -0.1)">
       <use xlink:href="#ArialUnicodeMS-57"/>
      </g>
     </g>
    </g>
    <g id="ytick_2">
     <g id="line2d_8">
      <g>
       <use style="stroke:#000000;stroke-width:0.8;" x="38.471875" xlink:href="#m0df4ac4afe" y="219.604763"/>
      </g>
     </g>
     <g id="text_9">
      <!-- 10 -->
      <g transform="translate(20.35 223.183669)scale(0.1 -0.1)">
       <use xlink:href="#ArialUnicodeMS-49"/>
       <use x="55.615234" xlink:href="#ArialUnicodeMS-48"/>
      </g>
     </g>
    </g>
    <g id="ytick_3">
     <g id="line2d_9">
      <g>
       <use style="stroke:#000000;stroke-width:0.8;" x="38.471875" xlink:href="#m0df4ac4afe" y="167.495608"/>
      </g>
     </g>
     <g id="text_10">
      <!-- 11 -->
      <g transform="translate(20.35 171.074515)scale(0.1 -0.1)">
       <use xlink:href="#ArialUnicodeMS-49"/>
       <use x="55.615234" xlink:href="#ArialUnicodeMS-49"/>
      </g>
     </g>
    </g>
    <g id="ytick_4">
     <g id="line2d_10">
      <g>
       <use style="stroke:#000000;stroke-width:0.8;" x="38.471875" xlink:href="#m0df4ac4afe" y="115.386454"/>
      </g>
     </g>
     <g id="text_11">
      <!-- 12 -->
      <g transform="translate(20.35 118.96536)scale(0.1 -0.1)">
       <use xlink:href="#ArialUnicodeMS-49"/>
       <use x="55.615234" xlink:href="#ArialUnicodeMS-50"/>
      </g>
     </g>
    </g>
    <g id="ytick_5">
     <g id="line2d_11">
      <g>
       <use style="stroke:#000000;stroke-width:0.8;" x="38.471875" xlink:href="#m0df4ac4afe" y="63.2773"/>
      </g>
     </g>
     <g id="text_12">
      <!-- 13 -->
      <g transform="translate(20.35 66.856206)scale(0.1 -0.1)">
       <use xlink:href="#ArialUnicodeMS-49"/>
       <use x="55.615234" xlink:href="#ArialUnicodeMS-51"/>
      </g>
     </g>
    </g>
    <g id="ytick_6">
     <g id="line2d_12">
      <g>
       <use style="stroke:#000000;stroke-width:0.8;" x="38.471875" xlink:href="#m0df4ac4afe" y="11.168146"/>
      </g>
     </g>
     <g id="text_13">
      <!-- 14 -->
      <g transform="translate(20.35 14.747052)scale(0.1 -0.1)">
       <use xlink:href="#ArialUnicodeMS-49"/>
       <use x="55.615234" xlink:href="#ArialUnicodeMS-52"/>
      </g>
     </g>
    </g>
    <g id="text_14">
     <!-- Value -->
     <defs>
      <path d="M 66.015625 71.578125 
L 37.984375 0 
L 28.328125 0 
L 0.59375 71.578125 
L 10.796875 71.578125 
L 29.390625 19.578125 
Q 31.5 14.59375 33.109375 7.90625 
L 33.296875 7.90625 
Q 34.765625 13.625 37.015625 19.578125 
L 56.390625 71.578125 
z
" id="ArialUnicodeMS-86"/>
      <path d="M 15.484375 0 
L 6.6875 0 
L 6.6875 71.578125 
L 15.484375 71.578125 
z
" id="ArialUnicodeMS-108"/>
     </defs>
     <g transform="translate(14.357813 153.0435)rotate(-90)scale(0.1 -0.1)">
      <use xlink:href="#ArialUnicodeMS-86"/>
      <use x="66.699219" xlink:href="#ArialUnicodeMS-97"/>
      <use x="122.314453" xlink:href="#ArialUnicodeMS-108"/>
      <use x="144.53125" xlink:href="#ArialUnicodeMS-117"/>
      <use x="200.146484" xlink:href="#ArialUnicodeMS-101"/>
     </g>
    </g>
   </g>
   <g id="line2d_13">
    <path clip-path="url(#peb8120dd03)" d="M 54.704602 19.296 
L 61.330205 91.676721 
L 67.955808 117.732134 
L 74.581411 134.030875 
L 81.207014 145.556576 
L 87.832617 172.658514 
L 94.45822 186.248617 
L 101.083823 194.391774 
L 107.709426 204.884686 
L 114.335029 216.917458 
L 120.960632 230.297484 
L 127.586235 238.838493 
L 134.211838 242.05087 
L 140.837441 247.115833 
L 147.463044 250.735226 
L 154.088647 252.725695 
L 160.71425 255.540751 
L 167.339853 258.330191 
L 173.965456 258.880728 
L 180.591059 259.78397 
L 187.216662 260.362085 
L 193.842265 260.503363 
L 200.467868 260.751297 
L 207.093471 260.919454 
L 213.719074 260.976702 
L 220.344676 261.105284 
L 226.970279 261.161605 
L 233.595882 261.18916 
L 240.221485 261.192323 
L 246.847088 261.194512 
L 253.472691 261.197143 
L 260.098294 261.198116 
L 266.723897 261.20291 
L 273.3495 261.204067 
L 279.975103 261.206627 
L 286.600706 261.207857 
L 293.226309 261.210966 
L 299.851912 261.212501 
L 306.477515 261.214037 
L 313.103118 261.215573 
L 319.728721 261.215573 
L 326.354324 261.215573 
L 332.979927 261.215573 
L 339.60553 261.215573 
L 346.231133 261.215573 
L 352.856736 261.215573 
L 359.482339 261.215573 
L 366.107942 261.216 
L 372.733545 261.216 
L 379.359148 261.216 
" style="fill:none;stroke:#1f77b4;stroke-linecap:square;stroke-width:1.5;"/>
   </g>
   <g id="line2d_14">
    <path clip-path="url(#peb8120dd03)" d="M 54.704602 181.005454 
L 61.330205 220.036362 
L 67.955808 260.47768 
L 74.581411 260.47768 
L 81.207014 260.47768 
L 87.832617 260.47768 
L 94.45822 260.47768 
L 101.083823 260.47768 
L 107.709426 260.47768 
L 114.335029 260.47768 
L 120.960632 261.107143 
L 127.586235 261.179512 
L 134.211838 261.190403 
L 140.837441 261.190403 
L 147.463044 261.190403 
L 154.088647 261.216 
L 160.71425 261.216 
L 167.339853 261.216 
L 173.965456 261.216 
L 180.591059 261.216 
L 187.216662 261.216 
L 193.842265 261.216 
L 200.467868 261.216 
L 207.093471 261.216 
L 213.719074 261.216 
L 220.344676 261.216 
L 226.970279 261.216 
L 233.595882 261.216 
L 240.221485 261.216 
L 246.847088 261.216 
L 253.472691 261.216 
L 260.098294 261.216 
L 266.723897 261.216 
L 273.3495 261.216 
L 279.975103 261.216 
L 286.600706 261.216 
L 293.226309 261.216 
L 299.851912 261.216 
L 306.477515 261.216 
L 313.103118 261.216 
L 319.728721 261.216 
L 326.354324 261.216 
L 332.979927 261.216 
L 339.60553 261.216 
L 346.231133 261.216 
L 352.856736 261.216 
L 359.482339 261.216 
L 366.107942 261.216 
L 372.733545 261.216 
L 379.359148 261.216 
" style="fill:none;stroke:#ff7f0e;stroke-linecap:square;stroke-width:1.5;"/>
   </g>
   <g id="patch_3">
    <path d="M 38.471875 273.312 
L 38.471875 7.2 
" style="fill:none;stroke:#000000;stroke-linecap:square;stroke-linejoin:miter;stroke-width:0.8;"/>
   </g>
   <g id="patch_4">
    <path d="M 395.591875 273.312 
L 395.591875 7.2 
" style="fill:none;stroke:#000000;stroke-linecap:square;stroke-linejoin:miter;stroke-width:0.8;"/>
   </g>
   <g id="patch_5">
    <path d="M 38.471875 273.312 
L 395.591875 273.312 
" style="fill:none;stroke:#000000;stroke-linecap:square;stroke-linejoin:miter;stroke-width:0.8;"/>
   </g>
   <g id="patch_6">
    <path d="M 38.471875 7.2 
L 395.591875 7.2 
" style="fill:none;stroke:#000000;stroke-linecap:square;stroke-linejoin:miter;stroke-width:0.8;"/>
   </g>
   <g id="legend_1">
    <g id="patch_7">
     <path d="M 246.591875 43.634375 
L 388.591875 43.634375 
Q 390.591875 43.634375 390.591875 41.634375 
L 390.591875 14.2 
Q 390.591875 12.2 388.591875 12.2 
L 246.591875 12.2 
Q 244.591875 12.2 244.591875 14.2 
L 244.591875 41.634375 
Q 244.591875 43.634375 246.591875 43.634375 
z
" style="fill:#ffffff;opacity:0.8;stroke:#cccccc;stroke-linejoin:miter;"/>
    </g>
    <g id="line2d_15">
     <path d="M 248.591875 19.907812 
L 268.591875 19.907812 
" style="fill:none;stroke:#1f77b4;stroke-linecap:square;stroke-width:1.5;"/>
    </g>
    <g id="line2d_16"/>
    <g id="text_15">
     <!-- 种群个体平均目标函数值 -->
     <defs>
      <path d="M 91.703125 23.484375 
L 71.6875 23.484375 
L 71.6875 -6.984375 
L 64.015625 -6.984375 
L 64.015625 23.390625 
L 44.1875 23.390625 
L 44.1875 63.09375 
L 63.921875 63.09375 
L 63.921875 82.625 
L 71.6875 82.625 
L 71.6875 62.984375 
L 91.703125 62.984375 
z
M 63.921875 30.8125 
L 63.921875 55.609375 
L 51.90625 55.71875 
L 51.90625 30.8125 
z
M 83.890625 30.8125 
L 83.890625 55.609375 
L 71.6875 55.609375 
L 71.6875 30.8125 
z
M 43.609375 27.390625 
L 36.921875 23.09375 
Q 33.796875 32.515625 29.890625 36.28125 
L 29.890625 -6.78125 
L 22.40625 -6.78125 
L 22.40625 31.984375 
L 22.21875 31.984375 
Q 18.171875 22.65625 10.5 14.109375 
L 4.5 18.890625 
Q 16.3125 31.984375 21.484375 50.984375 
L 8.015625 50.984375 
L 8.109375 58.40625 
L 22.40625 58.40625 
L 22.40625 69.390625 
Q 21.53125 69.34375 17.53125 68.71875 
Q 13.53125 68.109375 10.296875 68.21875 
L 6.6875 75.484375 
Q 24.125 75.59375 38.484375 81.890625 
L 42.390625 75.296875 
Q 33.546875 71.96875 29.890625 71.09375 
L 29.890625 58.40625 
L 43.015625 58.40625 
L 43.015625 50.875 
L 29.890625 50.875 
L 29.890625 42.578125 
L 32.421875 44 
Q 40.328125 37.109375 43.609375 27.390625 
z
" id="ArialUnicodeMS-31181"/>
      <path d="M 96 18.3125 
L 77.296875 18.3125 
L 77.296875 -6.203125 
L 69.671875 -6.203125 
L 69.671875 18.3125 
L 50.78125 18.3125 
L 50.78125 25.59375 
L 69.671875 25.59375 
L 69.671875 39.40625 
L 56.984375 39.40625 
L 56.984375 46.6875 
L 69.671875 46.6875 
L 69.671875 59.421875 
L 56 59.421875 
L 56 56.109375 
L 49.8125 56.109375 
L 49.8125 39.40625 
L 26.8125 39.40625 
Q 26.375 37.640625 24.3125 32.90625 
L 48.578125 32.90625 
L 48.578125 -6.203125 
L 41.015625 -6.203125 
L 41.015625 -0.296875 
L 23.875 -0.296875 
L 23.875 -6.203125 
L 16.3125 -6.203125 
L 16.3125 20.015625 
Q 14.5 18.0625 9.515625 14.015625 
L 3.21875 19 
Q 14.203125 27.203125 19.484375 39.40625 
L 11.28125 39.40625 
L 11.28125 46.6875 
L 21 46.6875 
Q 21.734375 49.359375 22.3125 56.109375 
L 6.296875 56.109375 
L 6.296875 63.375 
L 22.609375 63.375 
L 22.609375 71.78125 
L 11.28125 71.78125 
L 11.28125 79.109375 
L 49.8125 79.109375 
L 49.8125 63.375 
L 53.8125 63.375 
L 53.8125 66.703125 
L 66.3125 66.703125 
Q 62.640625 74.703125 54.890625 80.421875 
L 61.28125 84.421875 
Q 69.53125 78.421875 73.78125 69.390625 
L 70.015625 66.703125 
L 74.21875 66.703125 
Q 81.734375 75 83.109375 85.015625 
L 89.796875 80.90625 
Q 88.421875 73.296875 83.296875 66.703125 
L 93.3125 66.703125 
L 93.3125 59.421875 
L 77.296875 59.421875 
L 77.296875 46.6875 
L 90.09375 46.6875 
L 90.09375 39.40625 
L 77.296875 39.40625 
L 77.296875 25.59375 
L 96 25.59375 
z
M 42.1875 63.375 
L 42.1875 71.78125 
L 29.78125 71.78125 
L 29.78125 63.375 
z
M 42.1875 46.6875 
L 42.1875 56.109375 
L 29.78125 56.109375 
Q 29.34375 50 28.515625 46.6875 
z
M 41.015625 6.984375 
L 41.015625 25.59375 
L 23.875 25.59375 
L 23.875 6.984375 
z
" id="ArialUnicodeMS-32676"/>
      <path d="M 95.515625 39.109375 
L 89.5 33.796875 
Q 61.8125 49.265625 50 69.828125 
Q 43.5625 58.59375 32.34375 48.578125 
Q 21.140625 38.578125 9.515625 33.6875 
L 2.984375 38.921875 
Q 34.234375 53.71875 48.6875 83.203125 
L 55.421875 80.078125 
L 54.109375 77.296875 
Q 63.53125 57.71875 95.515625 39.109375 
z
M 53.21875 -6.984375 
L 45.609375 -6.984375 
L 45.609375 55.171875 
L 53.21875 55.171875 
z
" id="ArialUnicodeMS-20010"/>
      <path d="M 34.71875 79.890625 
Q 34.078125 73.53125 30.671875 64.109375 
L 27.203125 54.984375 
L 27.203125 -6 
L 19.484375 -6 
L 19.484375 41.40625 
Q 16.359375 37.203125 10.40625 30.8125 
L 3.71875 35.296875 
Q 20.359375 50.4375 28.078125 83.109375 
z
M 96.578125 18.109375 
L 90.921875 12.203125 
Q 82.171875 18.703125 76.34375 27.21875 
Q 70.515625 35.75 65.375 55.421875 
L 65.1875 55.421875 
L 65.1875 20.125 
L 81.390625 20.125 
L 81.390625 12.796875 
L 65.1875 12.796875 
L 65.1875 -6.390625 
L 57.625 -6.390625 
L 57.625 12.796875 
L 41.796875 12.796875 
L 41.796875 20.125 
L 57.625 20.125 
L 57.625 51.515625 
Q 51.90625 27.828125 32.90625 12.640625 
L 27.390625 18.265625 
Q 36.8125 26.5625 41.546875 34.34375 
Q 46.296875 42.140625 50 56.203125 
L 31.203125 56.203125 
L 31.203125 63.484375 
L 57.625 63.484375 
L 57.625 82.90625 
L 65.1875 82.90625 
L 65.1875 63.484375 
L 92.484375 63.484375 
L 92.484375 56.203125 
L 72.703125 56.203125 
Q 76.46875 40.96875 81.5 33.328125 
Q 86.53125 25.6875 96.578125 18.109375 
z
" id="ArialUnicodeMS-20307"/>
      <path d="M 92 29.296875 
L 53.421875 29.296875 
L 53.421875 -6.984375 
L 45.796875 -6.984375 
L 45.796875 29.296875 
L 7.078125 29.296875 
L 7.078125 36.625 
L 45.796875 36.625 
L 45.796875 71.390625 
L 13.375 71.390625 
L 13.375 78.71875 
L 85.203125 78.71875 
L 85.203125 71.390625 
L 53.421875 71.390625 
L 53.421875 36.625 
L 92 36.625 
z
M 81.890625 65.578125 
Q 77.828125 52.828125 64.59375 39.40625 
L 57.8125 43.796875 
Q 71.625 56.34375 75.296875 69.09375 
z
M 39.5 43.015625 
L 32.515625 39.203125 
Q 26.5625 56.34375 14.890625 64.890625 
L 22.3125 68.5 
Q 32.953125 59.125 39.5 43.015625 
z
" id="ArialUnicodeMS-24179"/>
      <path d="M 90.578125 69.671875 
Q 90.1875 26.8125 89.53125 15.28125 
Q 88.875 3.765625 85.28125 -1.265625 
Q 81.6875 -6.296875 74.125 -6.296875 
Q 71.96875 -6.296875 62.59375 -4.78125 
L 60.109375 3.90625 
Q 68.953125 2 74.8125 2 
Q 78.46875 2 80.203125 5.3125 
Q 81.9375 8.640625 82.546875 30.75 
Q 83.15625 52.875 82.90625 62.40625 
L 52.296875 62.40625 
Q 47.75 49.703125 39.984375 41.40625 
L 33.6875 46 
Q 35.203125 47.265625 36.625 48.875 
L 27 48.875 
L 27 22.515625 
L 39.703125 27.59375 
L 39.703125 19.671875 
L 10.015625 8.40625 
L 4.984375 15.28125 
L 19.390625 20.125 
L 19.390625 48.875 
L 7.625 48.875 
L 7.625 56.203125 
L 19.390625 56.203125 
L 19.390625 79.6875 
L 27 79.6875 
L 27 56.203125 
L 37.703125 56.203125 
L 37.703125 50.484375 
Q 46.96875 64.015625 49.90625 83.109375 
L 57.421875 80.71875 
Q 55.8125 72.5625 54.59375 69.671875 
z
M 75.203125 40.09375 
L 45.125 40.09375 
L 45.125 47.515625 
L 75.203125 47.515625 
z
M 77.484375 29.6875 
L 77.484375 22.015625 
Q 66.65625 18.0625 42.28125 11.078125 
L 37.984375 18.015625 
Q 68.609375 26.515625 77.484375 29.6875 
z
" id="ArialUnicodeMS-22343"/>
      <path d="M 76.703125 -4.203125 
L 68.796875 -4.203125 
L 68.796875 4.5 
L 28.515625 4.5 
L 28.515625 -4.203125 
L 20.609375 -4.203125 
L 20.609375 77.09375 
L 76.703125 77.09375 
z
M 68.796875 56.390625 
L 68.796875 69.828125 
L 28.515625 69.828125 
L 28.515625 56.390625 
z
M 68.796875 34.8125 
L 68.796875 49.125 
L 28.515625 49.125 
L 28.515625 34.8125 
z
M 68.796875 12.109375 
L 68.796875 27.484375 
L 28.515625 27.484375 
L 28.515625 12.109375 
z
" id="ArialUnicodeMS-30446"/>
      <path d="M 40.578125 33.890625 
L 33.984375 30.171875 
Q 31.34375 36.421875 26.609375 43.3125 
L 26.421875 43.3125 
L 26.421875 -5.515625 
L 18.796875 -5.515625 
L 18.796875 35.203125 
L 18.609375 35.203125 
Q 15.96875 25.921875 7.71875 17.28125 
L 2.09375 22.703125 
Q 15.09375 35.84375 18.3125 57.078125 
L 5.8125 57.078125 
L 5.8125 64.40625 
L 18.796875 64.40625 
L 18.796875 83.296875 
L 26.421875 83.296875 
L 26.421875 64.40625 
L 37.796875 64.40625 
L 37.796875 57.078125 
L 26.421875 57.078125 
L 26.421875 48.296875 
L 29.296875 50.09375 
Q 36.46875 42.578125 40.578125 33.890625 
z
M 87.015625 68.5 
L 41.703125 68.5 
L 41.703125 75.390625 
L 87.015625 75.390625 
z
M 91.609375 45.796875 
L 68.015625 45.796875 
L 68.015625 6.59375 
Q 68.015625 1.21875 67.1875 -1 
Q 66.359375 -3.21875 64.84375 -4.078125 
Q 63.328125 -4.9375 53.078125 -5.90625 
L 50.296875 1.8125 
L 58.6875 1.421875 
Q 60.40625 1.421875 60.40625 4.390625 
L 60.40625 45.796875 
L 37.3125 45.796875 
L 37.3125 52.6875 
L 91.609375 52.6875 
z
M 94 11.375 
L 86.8125 7.515625 
Q 81.984375 22.46875 70.796875 36.078125 
L 76.703125 39.796875 
Q 88.71875 25.09375 94 11.375 
z
M 54.59375 36.1875 
Q 47.3125 18.453125 34.71875 7.171875 
L 28.515625 12.203125 
Q 42.09375 24.125 48.390625 39.5 
z
" id="ArialUnicodeMS-26631"/>
      <path d="M 91.890625 72.609375 
L 41.21875 72.609375 
L 39.3125 63.8125 
L 55.515625 63.8125 
L 55.515625 30.71875 
L 59.8125 35.5 
Q 73.578125 29.734375 80.328125 21.484375 
L 75.390625 15.578125 
Q 67.1875 25.203125 55.515625 29.6875 
L 55.515625 16.5 
Q 55.515625 13.09375 52.90625 11.296875 
Q 50.296875 9.515625 48.09375 9.515625 
L 38.484375 9.515625 
L 35.796875 17.1875 
L 45.015625 16.796875 
Q 48 16.65625 48 19.1875 
L 48 56.390625 
L 37.796875 56.390625 
L 36.921875 53.328125 
L 29.59375 54.390625 
L 33.59375 72.609375 
L 8.109375 72.609375 
L 8.109375 79.890625 
L 91.890625 79.890625 
z
M 88.09375 -6.109375 
L 80.515625 -6.109375 
L 80.515625 -0.296875 
L 19.578125 -0.296875 
L 19.578125 -6.109375 
L 11.921875 -6.109375 
L 11.921875 62.015625 
L 19.484375 62.015625 
L 19.484375 48.390625 
L 24.03125 53.328125 
Q 35.40625 49.3125 42.828125 41.5 
L 37.703125 35.796875 
Q 30.28125 44 19.484375 47.703125 
L 19.484375 6.984375 
L 80.421875 6.984375 
L 80.421875 62.015625 
L 88.09375 62.015625 
z
M 79.203125 53.078125 
Q 74.125 44.140625 62.015625 37.203125 
L 56.59375 42.921875 
Q 66.609375 47.703125 73.484375 57.8125 
z
M 45.703125 28.515625 
Q 34.1875 22.46875 25.484375 17.578125 
L 20.40625 23.484375 
Q 27.15625 26.65625 45.609375 36.71875 
L 45.609375 28.515625 
z
" id="ArialUnicodeMS-20989"/>
      <path d="M 95.90625 0.296875 
L 90.71875 -5.90625 
Q 78.609375 3.03125 73.390625 11.1875 
Q 67.875 2.25 52 -6.890625 
L 46.578125 -0.78125 
Q 61.96875 6.78125 68.796875 18.015625 
Q 63.09375 28.65625 60.40625 43.015625 
Q 57.46875 36.8125 52.390625 29.984375 
L 46.09375 34.421875 
Q 59.96875 49.5625 61.921875 82.078125 
L 68.890625 80.078125 
Q 67.828125 68.5 66.703125 62.59375 
L 93.5 62.59375 
L 93.5 55.421875 
L 87.796875 55.328125 
L 87.40625 52.203125 
Q 85.015625 33.015625 77.78125 18.609375 
Q 82.515625 10.5 95.90625 0.296875 
z
M 80.71875 55.328125 
L 65.1875 55.328125 
Q 67.140625 37.796875 73.296875 25.78125 
Q 78.71875 39.265625 80.71875 55.328125 
z
M 53.71875 57.078125 
L 34.515625 57.078125 
L 34.515625 36.53125 
L 29.984375 36.53125 
Q 29.6875 35.453125 27.390625 30.171875 
L 50.390625 30.171875 
L 50.390625 23 
L 45.515625 23 
Q 43.171875 15.484375 39.109375 10.40625 
Q 46.046875 5.515625 48.484375 2.875 
L 42.921875 -2.6875 
Q 38.484375 2.15625 33.59375 4.890625 
Q 20.65625 -3.515625 8.796875 -6.6875 
L 4.203125 0.09375 
Q 17.28125 2.546875 26.3125 8.796875 
Q 20.171875 11.8125 10.984375 13.8125 
L 16.21875 23 
L 6.296875 23 
L 6.296875 30.171875 
L 19.671875 30.171875 
Q 20.75 32.125 22.90625 39.890625 
L 27.296875 38.8125 
L 27.296875 57.078125 
L 26.8125 57.078125 
Q 22.078125 45.015625 10.59375 38.375 
L 5.90625 43.796875 
Q 14.65625 48.296875 19.390625 57.078125 
L 6.296875 57.078125 
L 6.296875 64.40625 
L 27.296875 64.40625 
L 27.296875 81.6875 
L 34.515625 81.6875 
L 34.515625 64.40625 
L 53.71875 64.40625 
z
M 37.59375 23 
L 24.03125 23 
Q 22.21875 19.390625 21.390625 18.015625 
Q 21.6875 18.109375 32.328125 13.8125 
Q 34.671875 16.109375 37.59375 23 
z
M 25.390625 69.390625 
L 20.125 64.984375 
Q 15.96875 71.046875 8.984375 75.203125 
L 13.71875 79.296875 
Q 21.78125 75.6875 25.390625 69.390625 
z
M 52.875 75.6875 
Q 48.390625 68.890625 41.703125 65.1875 
L 36.28125 70.015625 
Q 43.84375 74.359375 47.609375 79.203125 
z
M 51.609375 45.125 
L 46 40.28125 
Q 42.28125 47.265625 35.796875 51.515625 
L 40.375 55.71875 
Q 46.6875 52.484375 51.609375 45.125 
z
" id="ArialUnicodeMS-25968"/>
      <path d="M 94.28125 -2.6875 
L 27.984375 -2.6875 
L 27.984375 4.59375 
L 36.625 4.59375 
L 36.625 60.203125 
L 53.515625 60.203125 
Q 55.375 64.203125 56.390625 67.828125 
L 30.078125 67.828125 
L 29.984375 73 
Q 28.765625 68.265625 26.421875 62.203125 
L 24.125 56.59375 
L 24.125 -6.78125 
L 16.5 -6.78125 
L 16.5 43.015625 
Q 13.421875 38.53125 9.90625 35.015625 
L 3.71875 39.3125 
Q 19.09375 56.546875 24.8125 83.203125 
L 31.6875 80.8125 
Q 31.390625 78.71875 30.515625 75.09375 
L 58.296875 75.09375 
Q 58.9375 78.078125 59.078125 83.40625 
L 66.796875 82.078125 
Q 66.796875 78.328125 66.015625 75.09375 
L 90.828125 75.09375 
L 90.828125 67.828125 
L 64.59375 67.828125 
Q 63.921875 65.4375 61.8125 60.203125 
L 84.515625 60.203125 
L 84.515625 4.59375 
L 94.28125 4.59375 
z
M 76.90625 46.78125 
L 76.90625 52.875 
L 44.1875 52.875 
L 44.1875 46.78125 
z
M 76.90625 33.40625 
L 76.90625 40.375 
L 44.1875 40.375 
L 44.1875 33.40625 
z
M 76.90625 19.390625 
L 76.90625 26.8125 
L 44.1875 26.8125 
L 44.1875 19.390625 
z
M 76.90625 4.59375 
L 76.90625 12.890625 
L 44.1875 12.890625 
L 44.1875 4.59375 
z
" id="ArialUnicodeMS-20540"/>
     </defs>
     <g transform="translate(276.591875 23.407812)scale(0.1 -0.1)">
      <use xlink:href="#ArialUnicodeMS-31181"/>
      <use x="100" xlink:href="#ArialUnicodeMS-32676"/>
      <use x="200" xlink:href="#ArialUnicodeMS-20010"/>
      <use x="300" xlink:href="#ArialUnicodeMS-20307"/>
      <use x="400" xlink:href="#ArialUnicodeMS-24179"/>
      <use x="500" xlink:href="#ArialUnicodeMS-22343"/>
      <use x="600" xlink:href="#ArialUnicodeMS-30446"/>
      <use x="700" xlink:href="#ArialUnicodeMS-26631"/>
      <use x="800" xlink:href="#ArialUnicodeMS-20989"/>
      <use x="900" xlink:href="#ArialUnicodeMS-25968"/>
      <use x="1000" xlink:href="#ArialUnicodeMS-20540"/>
     </g>
    </g>
    <g id="line2d_17">
     <path d="M 248.591875 34.142187 
L 268.591875 34.142187 
" style="fill:none;stroke:#ff7f0e;stroke-linecap:square;stroke-width:1.5;"/>
    </g>
    <g id="line2d_18"/>
    <g id="text_16">
     <!-- 种群最优个体目标函数值 -->
     <defs>
      <path d="M 77.390625 49.3125 
L 20.515625 49.3125 
L 20.515625 78.328125 
L 77.390625 78.328125 
z
M 69.828125 67 
L 69.828125 71.390625 
L 28.078125 71.390625 
L 28.078125 67 
z
M 69.828125 56.203125 
L 69.828125 60.40625 
L 28.078125 60.40625 
L 28.078125 56.203125 
z
M 91.5 39.203125 
L 51.21875 39.203125 
L 51.21875 -6.890625 
L 43.3125 -6.890625 
L 43.3125 3.8125 
L 9.421875 -1.515625 
L 5.328125 5.71875 
L 15.828125 6.6875 
L 15.828125 39.203125 
L 6.78125 39.203125 
L 6.78125 46.484375 
L 91.5 46.484375 
z
M 43.3125 33.796875 
L 43.3125 39.203125 
L 23.390625 39.203125 
L 23.390625 33.796875 
z
M 43.3125 21.78125 
L 43.3125 26.90625 
L 23.390625 26.90625 
L 23.390625 21.78125 
z
M 43.3125 10.5 
L 43.3125 14.890625 
L 23.390625 14.890625 
L 23.390625 7.71875 
Q 37.546875 9.421875 43.3125 10.5 
z
M 93.5 -0.6875 
L 88.484375 -6.5 
Q 80.03125 -3.078125 71.78125 4.984375 
Q 61.375 -4.5 56.296875 -7.328125 
L 51.8125 -1.3125 
Q 61.96875 4.9375 67.09375 10.203125 
Q 59.515625 20.359375 58.203125 28.328125 
L 54 28.328125 
L 54 35.59375 
L 86.921875 35.59375 
Q 84.234375 20.40625 76.515625 10.40625 
Q 83.34375 3.375 93.5 -0.6875 
z
M 78.21875 28.328125 
L 65.09375 28.328125 
Q 67.140625 21.96875 71.484375 15.921875 
Q 77 24.21875 78.21875 28.328125 
z
" id="ArialUnicodeMS-26368"/>
      <path d="M 35.40625 81 
Q 33.890625 74.859375 30.953125 66.453125 
L 27.984375 58.59375 
L 27.984375 -6 
L 20.3125 -6 
L 20.3125 43.5 
Q 15.375 35.6875 10.6875 31 
L 4.203125 35.796875 
Q 22.015625 55.5625 28.328125 83.984375 
z
M 94.484375 11.53125 
Q 92.234375 -3.21875 86.8125 -3.21875 
L 66.21875 -3.21875 
Q 59.421875 -3.21875 59.421875 3.328125 
L 59.421875 35.796875 
L 59.078125 35.796875 
Q 55.03125 5.953125 33.40625 -6.390625 
L 28.328125 -0.390625 
Q 51.5625 13.375 53.515625 50.984375 
L 31.890625 50.984375 
L 31.890625 58.296875 
L 53.90625 58.296875 
L 53.90625 83.109375 
L 61.53125 83.109375 
L 61.53125 58.296875 
L 93.3125 58.296875 
L 93.3125 50.984375 
L 61.28125 50.984375 
L 60.984375 47.125 
L 67.28125 47.125 
L 67.28125 6 
Q 67.28125 4.109375 69 4.109375 
L 83.296875 4.109375 
Q 85.25 4.109375 86.109375 6.59375 
Q 86.96875 9.078125 87.109375 17.1875 
z
M 85.6875 63.625 
L 79.5 58.890625 
Q 75.640625 65.71875 65.09375 73.390625 
L 70.796875 78.328125 
Q 78.71875 73 85.6875 63.625 
z
" id="ArialUnicodeMS-20248"/>
     </defs>
     <g transform="translate(276.591875 37.642187)scale(0.1 -0.1)">
      <use xlink:href="#ArialUnicodeMS-31181"/>
      <use x="100" xlink:href="#ArialUnicodeMS-32676"/>
      <use x="200" xlink:href="#ArialUnicodeMS-26368"/>
      <use x="300" xlink:href="#ArialUnicodeMS-20248"/>
      <use x="400" xlink:href="#ArialUnicodeMS-20010"/>
      <use x="500" xlink:href="#ArialUnicodeMS-20307"/>
      <use x="600" xlink:href="#ArialUnicodeMS-30446"/>
      <use x="700" xlink:href="#ArialUnicodeMS-26631"/>
      <use x="800" xlink:href="#ArialUnicodeMS-20989"/>
      <use x="900" xlink:href="#ArialUnicodeMS-25968"/>
      <use x="1000" xlink:href="#ArialUnicodeMS-20540"/>
     </g>
    </g>
   </g>
  </g>
 </g>
 <defs>
  <clipPath id="peb8120dd03">
   <rect height="266.112" width="357.12" x="38.471875" y="7.2"/>
  </clipPath>
 </defs>
</svg>
